<?xml version="1.0" encoding="UTF-8"?>
<svg version="1.1" xmlns="http://www.w3.org/2000/svg" width="314" height="430">
<path d="M0 0 C103.62 0 207.24 0 314 0 C314 141.9 314 283.8 314 430 C210.38 430 106.76 430 0 430 C0 288.1 0 146.2 0 0 Z " fill="#FCFCFC" transform="translate(0,0)"/>
<path d="M0 0 C4.15092736 3.87419887 5.91797958 6.97066426 6.265625 12.6875 C5.79054021 16.82353233 3.81479802 19.99482916 1 23 C-3.08593387 26.12199877 -6.30062547 26.3784581 -11.375 26.5 C-38.54507307 27.63755539 -62.82907909 38.86020071 -82 58 C-100.34667471 78.02845323 -110.11180945 102.86857493 -109.19140625 129.984375 C-109.12934054 131.3229983 -109.06569706 132.66155 -109 134 C-108.96777344 135.01578125 -108.93554688 136.0315625 -108.90234375 137.078125 C-108.46799785 144.69588384 -106.35543176 151.77401443 -104 159 C-103.65066406 160.07378906 -103.30132812 161.14757812 -102.94140625 162.25390625 C-96.66485643 179.9542111 -85.66059376 194.33816406 -71 206 C-71.0825 204.96875 -71.165 203.9375 -71.25 202.875 C-70.90047839 197.45741502 -68.88985446 194.66751864 -64.875 191.125 C-60.55061539 189.4328495 -56.57934806 189.3531579 -52 190 C-46.85098746 192.3838021 -44.18389537 195.84987198 -42 201 C-41.6117349 203.82447308 -41.41378982 206.24621417 -41.43359375 209.05859375 C-41.42739517 209.8065773 -41.42119659 210.55456085 -41.41481018 211.32521057 C-41.40774835 212.89753935 -41.41082213 214.46994348 -41.42358398 216.04223633 C-41.43744868 218.4286663 -41.40333528 220.81116595 -41.36523438 223.19726562 C-41.28569936 237.41540634 -41.28569936 237.41540634 -45.43017578 242.58911133 C-51.80720426 248.32050287 -61.08677245 250.19809968 -69.0625 252.75 C-70.30322266 253.16121094 -71.54394531 253.57242187 -72.82226562 253.99609375 C-74.02689453 254.38410156 -75.23152344 254.77210938 -76.47265625 255.171875 C-77.55812744 255.5234668 -78.64359863 255.87505859 -79.76196289 256.23730469 C-84.75712457 257.41387749 -88.5686155 257.72972543 -93.1875 255.375 C-96.8211159 252.30661324 -99.5311563 249.66475452 -100.3828125 244.82421875 C-100.65615159 239.40299349 -99.62099313 236.20818121 -96 232 C-94.34938941 230.64684065 -92.68477344 229.31037934 -91 228 C-91.59425781 227.48953125 -92.18851563 226.9790625 -92.80078125 226.453125 C-119.28860196 203.21963996 -135.97613719 172.40439368 -139 137 C-141.27058292 101.41401891 -129.55405125 67.68670714 -106.28881836 40.68945312 C-89.88746742 22.22910704 -68.72072255 8.82948276 -45 2 C-43.97132812 1.70351562 -42.94265625 1.40703125 -41.8828125 1.1015625 C-9.94104235 -7.45578176 -9.94104235 -7.45578176 0 0 Z " fill="#C7B0B5" transform="translate(170,95)"/>
<path d="M0 0 C4.18786144 2.67310305 7.06259494 5.26478602 8.64453125 9.984375 C9.46539517 14.43391774 9.07386233 17.36942835 6.8125 21.3125 C4.60872056 24.41754498 2.75223043 26.00306162 -1.0625 26.875 C-1.0625 27.535 -1.0625 28.195 -1.0625 28.875 C-0.46646973 29.14795898 0.12956055 29.42091797 0.74365234 29.70214844 C20.19489637 40.10096619 34.85540888 68.62064374 41.30859375 88.76269531 C44.42595422 99.23296037 46.63264933 109.93848219 46.9375 120.875 C46.97617187 121.99382568 46.97617187 121.99382568 47.015625 123.13525391 C48.05977112 156.67192213 38.3423857 188.75095913 15.625 214 C-9.27695387 240.42488328 -39.73988978 258.02679015 -76.7902832 259.19775391 C-77.54011475 259.21499512 -78.28994629 259.23223633 -79.0625 259.25 C-79.76914795 259.27626465 -80.4757959 259.3025293 -81.20385742 259.32958984 C-86.31247074 259.34543807 -89.13025347 258.06487551 -93.0625 254.875 C-96.48507501 250.91201841 -97.6761431 247.95163282 -97.3828125 242.828125 C-96.65014841 238.36066106 -94.84092435 235.59504252 -91.5625 232.5625 C-87.85564745 230.06037453 -84.96159968 229.77207827 -80.56738281 229.63574219 C-57.21764808 228.85568423 -34.77353444 220.13891396 -17.0625 204.875 C-16.38832031 204.34519531 -15.71414062 203.81539062 -15.01953125 203.26953125 C-1.22343928 192.11700182 7.76680743 175.52819608 12.9375 158.875 C13.33195312 157.73289063 13.72640625 156.59078125 14.1328125 155.4140625 C21.850085 130.10356738 17.10124502 103.32376753 5.125 80.3125 C-1.3648327 68.85696197 -9.63205939 59.91729748 -19.0625 50.875 C-19.22105469 51.46667969 -19.37960938 52.05835938 -19.54296875 52.66796875 C-21.10291644 57.9511065 -22.59616513 61.36573689 -27.0625 64.875 C-30.80166128 66.88839454 -33.84879395 67.45335181 -38.0625 66.875 C-43.20350811 64.50974532 -46.56805771 62.04696292 -49.0625 56.875 C-49.35013985 54.00818945 -49.48367231 51.36677742 -49.4609375 48.50390625 C-49.46380768 47.70395737 -49.46667786 46.90400848 -49.46963501 46.07981873 C-49.47167059 44.39296763 -49.46617614 42.70609265 -49.45361328 41.01928711 C-49.4375728 38.44916486 -49.45346742 35.88062005 -49.47265625 33.31054688 C-49.47067331 31.66666322 -49.4668286 30.02278054 -49.4609375 28.37890625 C-49.47004654 27.23489098 -49.47004654 27.23489098 -49.4793396 26.06776428 C-49.4015457 20.11031773 -48.21120719 15.99245754 -43.82983398 11.67480469 C-40.62641988 9.59138441 -37.38273048 8.28567375 -33.78515625 7.078125 C-32.75170326 6.72037994 -32.75170326 6.72037994 -31.69737244 6.35540771 C-30.24762637 5.85646667 -28.79612962 5.36258653 -27.34301758 4.87353516 C-25.13031541 4.12679384 -22.9255001 3.35957013 -20.72070312 2.58984375 C-19.30511207 2.10552808 -17.88910911 1.62241436 -16.47265625 1.140625 C-15.8193483 0.91256165 -15.16604034 0.68449829 -14.49293518 0.44952393 C-9.29913355 -1.27586236 -5.18517849 -1.90475945 0 0 Z " fill="#C7B0B5" transform="translate(244.0625,93.125)"/>
<path d="M0 0 C3.1514346 2.73306233 4.74970214 4.39560911 5.3984375 8.55395508 C5.4917911 11.5095604 5.43639156 14.42066273 5.3125 17.375 C5.28994141 18.39722656 5.26738281 19.41945312 5.24414062 20.47265625 C5.18548082 22.98329581 5.10345928 25.49087379 5 28 C5.63502441 27.97381592 6.27004883 27.94763184 6.92431641 27.9206543 C9.82428878 27.81619605 12.7238647 27.75152253 15.625 27.6875 C16.62402344 27.64560547 17.62304688 27.60371094 18.65234375 27.56054688 C26.99858974 27.42236399 26.99858974 27.42236399 30.640625 30.3046875 C33.60381934 33.68979362 34.15739994 35.51410182 34 40 C31.06329114 45.46835443 31.06329114 45.46835443 28 47 C26.2595583 47.08449628 24.51590278 47.10723024 22.7734375 47.09765625 C21.7421875 47.09443359 20.7109375 47.09121094 19.6484375 47.08789062 C18.56820312 47.07951172 17.48796875 47.07113281 16.375 47.0625 C14.74304688 47.05573242 14.74304688 47.05573242 13.078125 47.04882812 C10.38539338 47.0370179 7.69268991 47.01908205 5 47 C5 53.6 5 60.2 5 67 C7.31 67 9.62 67 12 67 C19.54048671 69.08097848 26.22549906 73.73602052 30.3125 80.4375 C34.46781293 89.2098273 35.2437515 97.20777842 32.234375 106.40625 C29.00599342 113.18993787 23.20070702 119.42655745 16.17504883 122.31201172 C13.8405491 123.05043581 11.68472986 123.35487442 9.25 123.58984375 C8.45078125 123.66968506 7.6515625 123.74952637 6.828125 123.83178711 C5.92320312 123.91505249 5.92320312 123.91505249 5 124 C5.01571045 124.64026123 5.0314209 125.28052246 5.04760742 125.94018555 C5.11017115 128.85586631 5.14905808 131.77140555 5.1875 134.6875 C5.21263672 135.69490234 5.23777344 136.70230469 5.26367188 137.74023438 C5.35596127 147.06146354 5.35596127 147.06146354 2 151 C-1.42159595 153.56619697 -4.84844133 153.50984054 -9 153 C-11.703125 151.2421875 -11.703125 151.2421875 -14 148 C-14.61732482 143.87983883 -14.47031492 139.84167425 -14.3125 135.6875 C-14.28994141 134.56537109 -14.26738281 133.44324219 -14.24414062 132.28710938 C-14.18533776 129.52337464 -14.10320401 126.76237446 -14 124 C-14.70084717 124.0314209 -15.40169434 124.0628418 -16.1237793 124.09521484 C-19.31135542 124.22023852 -22.49841586 124.29806632 -25.6875 124.375 C-26.79029297 124.42527344 -27.89308594 124.47554688 -29.02929688 124.52734375 C-36.98723733 124.67159645 -36.98723733 124.67159645 -39.86547852 122.76293945 C-42.22421867 120.06849845 -43.0056018 117.96452192 -43.5625 114.4375 C-42.91429589 110.47625263 -41.81200626 108.81200626 -39 106 C-36.44276771 104.72138385 -34.63262898 104.88663391 -31.7734375 104.90234375 C-30.2265625 104.90717773 -30.2265625 104.90717773 -28.6484375 104.91210938 C-27.02808594 104.92467773 -27.02808594 104.92467773 -25.375 104.9375 C-23.74304688 104.94426758 -23.74304688 104.94426758 -22.078125 104.95117188 C-19.38539338 104.9629821 -16.69268991 104.98091795 -14 105 C-14 98.73 -14 92.46 -14 86 C-16.64 85.67 -19.28 85.34 -22 85 C-27.77936058 83.21094149 -32.03956868 80.6393624 -36 76 C-37.051875 74.8553125 -37.051875 74.8553125 -38.125 73.6875 C-43.50304695 65.97896604 -43.96692381 58.19651976 -43 49 C-42.10073673 45.94443878 -40.84492556 43.58289578 -39 41 C-38.2575 39.948125 -37.515 38.89625 -36.75 37.8125 C-31.18056533 32.11648727 -24.47181421 28.08685419 -16.29296875 27.95703125 C-15.53628906 27.97121094 -14.77960938 27.98539063 -14 28 C-14.02094727 27.3294458 -14.04189453 26.6588916 -14.06347656 25.96801758 C-14.14686027 22.9163322 -14.19873016 19.86488683 -14.25 16.8125 C-14.28351563 15.75740234 -14.31703125 14.70230469 -14.3515625 13.61523438 C-14.45039922 5.78242429 -14.45039922 5.78242429 -12.171875 1.82421875 C-8.12759349 -1.57268676 -4.95402477 -1.2812133 0 0 Z " fill="#C7B0B5" transform="translate(166,146)"/>
<path d="M0 0 C0 6.6 0 13.2 0 20 C-6.31736527 18.73652695 -6.31736527 18.73652695 -9 15 C-10.00557859 11.45132773 -10.34148377 8.26348996 -9.375 4.6875 C-6.75329505 1.46995301 -4.13615021 0 0 0 Z " fill="#F9F7F8" transform="translate(152,193)"/>
<path d="M0 0 C6.42857143 1.28571429 6.42857143 1.28571429 9 5 C9.5968778 9.70041265 9.66933757 11.83485682 7.3125 15.9375 C5 18 5 18 0 19 C0 12.73 0 6.46 0 0 Z " fill="#FCFBFC" transform="translate(171,232)"/>
</svg>
